HIERARCHY
ROOT newVegas:Hips
{
	OFFSET 0.000000 96.479958 0.000000
	CHANNELS 6 Xposition Yposition Zposition Xrotation Yrotation Zrotation
	JOINT newVegas:Pelvis
	{
		OFFSET 0.000000 0.000000 0.000000
		CHANNELS 3 Xrotation Yrotation Zrotation
		JOINT newVegas:LeftUpLeg
		{
			OFFSET 18.735201 -5.666702 -4.541200
			CHANNELS 3 Xrotation Yrotation Zrotation
			JOINT newVegas:LeftLeg
			{
				OFFSET -0.021200 -31.938179 0.493100
				CHANNELS 3 Xrotation Yrotation Zrotation
				JOINT newVegas:LeftFoot
				{
					OFFSET 0.021200 -31.938179 -4.336299
					CHANNELS 3 Xrotation Yrotation Zrotation
					JOINT newVegas:LeftToeBase
					{
						OFFSET 0.943001 -26.722000 15.023500
						CHANNELS 3 Xrotation Yrotation Zrotation
						End Site
						{
							OFFSET 0.000000 30.670183 0.000000
						}
					}
				}
				JOINT newVegas:Left_PantLeg
				{
					OFFSET 0.663870 -9.044666 -1.108900
					CHANNELS 3 Xrotation Yrotation Zrotation
					End Site
					{
						OFFSET 1.415995 20.635357 0.000000
					}
				}
			}
		}
		JOINT newVegas:RightUpLeg
		{
			OFFSET -18.735201 -5.666702 -4.541200
			CHANNELS 3 Xrotation Yrotation Zrotation
			JOINT newVegas:RightLeg
			{
				OFFSET 0.018946 -31.938133 0.493100
				CHANNELS 3 Xrotation Yrotation Zrotation
				JOINT newVegas:RightFoot
				{
					OFFSET -0.018946 -31.938126 -4.336299
					CHANNELS 3 Xrotation Yrotation Zrotation
					JOINT newVegas:RightToeBase
					{
						OFFSET -0.943001 -26.722004 15.023500
						CHANNELS 3 Xrotation Yrotation Zrotation
						End Site
						{
							OFFSET 0.000000 30.670187 0.000000
						}
					}
				}
				JOINT newVegas:Right_PantLeg
				{
					OFFSET -0.661674 -9.044716 -1.108900
					CHANNELS 3 Xrotation Yrotation Zrotation
					End Site
					{
						OFFSET -1.415958 20.635269 0.000000
					}
				}
			}
		}
	}
	JOINT newVegas:Spine
	{
		OFFSET 0.000000 10.199997 -0.299500
		CHANNELS 3 Xrotation Yrotation Zrotation
		JOINT newVegas:Spine1
		{
			OFFSET 0.000000 11.900002 -1.516600
			CHANNELS 3 Xrotation Yrotation Zrotation
			JOINT newVegas:Spine2
			{
				OFFSET 0.000000 13.600006 -2.842500
				CHANNELS 3 Xrotation Yrotation Zrotation
				JOINT newVegas:Neck
				{
					OFFSET 0.000000 9.624100 -2.890100
					CHANNELS 3 Xrotation Yrotation Zrotation
					JOINT newVegas:Head
					{
						OFFSET 0.000000 14.068802 -1.351900
						CHANNELS 3 Xrotation Yrotation Zrotation
						JOINT newVegas:Hair_Back
						{
							OFFSET 0.000000 3.231903 -17.524799
							CHANNELS 3 Xrotation Yrotation Zrotation
							End Site
							{
								OFFSET 0.000000 19.849884 0.000000
							}
						}
						JOINT newVegas:Hair_Front
						{
							OFFSET 0.000000 31.260406 4.573800
							CHANNELS 3 Xrotation Yrotation Zrotation
							JOINT newVegas:Hair_Front1
							{
								OFFSET 0.000000 2.284103 11.993300
								CHANNELS 3 Xrotation Yrotation Zrotation
								JOINT newVegas:Hair_Front2
								{
									OFFSET 0.000000 2.284103 11.993300
									CHANNELS 3 Xrotation Yrotation Zrotation
									End Site
									{
										OFFSET 0.000000 12.208862 0.000000
									}
								}
							}
						}
						JOINT newVegas:Jowel
						{
							OFFSET 0.000000 -7.458206 6.864100
							CHANNELS 3 Xrotation Yrotation Zrotation
							End Site
							{
								OFFSET 0.000000 19.849884 0.000000
							}
						}
					}
				}
				JOINT newVegas:LeftShoulder
				{
					OFFSET 15.263000 10.923401 -0.547700
					CHANNELS 3 Xrotation Yrotation Zrotation
					JOINT newVegas:LeftArm
					{
						OFFSET 25.438599 -2.830597 -13.032500
						CHANNELS 3 Xrotation Yrotation Zrotation
						JOINT newVegas:LeftForeArm
						{
							OFFSET 29.960503 0.000000 0.000000
							CHANNELS 3 Xrotation Yrotation Zrotation
							JOINT newVegas:LeftHand
							{
								OFFSET 27.849251 0.000000 0.000000
								CHANNELS 3 Xrotation Yrotation Zrotation
								JOINT newVegas:LeftHandThumb1
								{
									OFFSET 4.487587 -3.305161 6.305391
									CHANNELS 3 Xrotation Yrotation Zrotation
									JOINT newVegas:LeftHandThumb2
									{
										OFFSET 5.480453 -3.164139 3.164143
										CHANNELS 3 Xrotation Yrotation Zrotation
										JOINT newVegas:LeftHandThumb3
										{
											OFFSET 5.159721 -2.978973 2.978967
											CHANNELS 3 Xrotation Yrotation Zrotation
											End Site
											{
												OFFSET 2.494507 5.926697 1.738678
											}
										}
									}
								}
								JOINT newVegas:LeftHandIndex1
								{
									OFFSET 18.578728 -0.527832 5.208049
									CHANNELS 3 Xrotation Yrotation Zrotation
									JOINT newVegas:LeftHandIndex2
									{
										OFFSET 3.192009 0.000000 0.000000
										CHANNELS 3 Xrotation Yrotation Zrotation
										JOINT newVegas:LeftHandIndex3
										{
											OFFSET 3.835129 0.000000 0.000000
											CHANNELS 3 Xrotation Yrotation Zrotation
											End Site
											{
												OFFSET -0.034599 3.816971 0.371180
											}
										}
									}
								}
								JOINT newVegas:LeftHandMiddle1
								{
									OFFSET 18.476105 0.000000 0.000000
									CHANNELS 3 Xrotation Yrotation Zrotation
									JOINT newVegas:LeftHandMiddle2
									{
										OFFSET 3.324875 0.000000 0.000000
										CHANNELS 3 Xrotation Yrotation Zrotation
										JOINT newVegas:LeftHandMiddle3
										{
											OFFSET 4.596550 0.000000 0.000000
											CHANNELS 3 Xrotation Yrotation Zrotation
											End Site
											{
												OFFSET 0.057701 4.578827 0.399218
											}
										}
									}
								}
								JOINT newVegas:LeftHandRing1
								{
									OFFSET 17.732719 0.121887 -4.201567
									CHANNELS 3 Xrotation Yrotation Zrotation
									JOINT newVegas:LeftHandRing2
									{
										OFFSET 2.733170 0.000000 0.000000
										CHANNELS 3 Xrotation Yrotation Zrotation
										JOINT newVegas:LeftHandRing3
										{
											OFFSET 3.178268 0.000000 0.000000
											CHANNELS 3 Xrotation Yrotation Zrotation
											End Site
											{
												OFFSET 0.119102 3.170624 0.185394
											}
										}
									}
								}
								JOINT newVegas:LeftHandPinky1
								{
									OFFSET 15.989624 -0.606689 -7.535461
									CHANNELS 3 Xrotation Yrotation Zrotation
									JOINT newVegas:LeftHandPinky2
									{
										OFFSET 2.538986 0.000000 0.000000
										CHANNELS 3 Xrotation Yrotation Zrotation
										JOINT newVegas:LeftHandPinky3
										{
											OFFSET 2.593102 0.000000 0.000000
											CHANNELS 3 Xrotation Yrotation Zrotation
											End Site
											{
												OFFSET -0.150902 2.584198 0.152708
											}
										}
									}
								}
							}
							JOINT newVegas:Left_Sleeve
							{
								OFFSET 0.267448 -0.649796 0.577675
								CHANNELS 3 Xrotation Yrotation Zrotation
								End Site
								{
									OFFSET 0.000000 15.991241 0.000000
								}
							}
							JOINT newVegas:Left_CapeC
							{
								OFFSET 15.715958 -8.608795 -6.935905
								CHANNELS 3 Xrotation Yrotation Zrotation
								JOINT newVegas:Left_CapeC1
								{
									OFFSET 0.000000 -8.688499 0.000000
									CHANNELS 3 Xrotation Yrotation Zrotation
									End Site
									{
										OFFSET 0.000000 8.688499 0.000000
									}
								}
							}
						}
						JOINT newVegas:Left_CapeB
						{
							OFFSET 26.118385 -8.608795 -7.079235
							CHANNELS 3 Xrotation Yrotation Zrotation
							JOINT newVegas:Left_CapeB1
							{
								OFFSET 0.000000 -8.688499 0.000000
								CHANNELS 3 Xrotation Yrotation Zrotation
								End Site
								{
									OFFSET 0.000000 8.688499 0.000000
								}
							}
						}
						JOINT newVegas:Left_CapeA
						{
							OFFSET 5.115639 -8.608795 -10.395809
							CHANNELS 3 Xrotation Yrotation Zrotation
							JOINT newVegas:Left_CapeA1
							{
								OFFSET 0.000000 -8.688499 0.000000
								CHANNELS 3 Xrotation Yrotation Zrotation
								End Site
								{
									OFFSET 0.000000 8.688499 0.000000
								}
							}
						}
					}
				}
				JOINT newVegas:RightShoulder
				{
					OFFSET -15.263000 10.923401 -0.547700
					CHANNELS 3 Xrotation Yrotation Zrotation
					JOINT newVegas:RightArm
					{
						OFFSET -25.438599 -2.830597 -13.032500
						CHANNELS 3 Xrotation Yrotation Zrotation
						JOINT newVegas:RightForeArm
						{
							OFFSET -29.960503 0.000000 0.000000
							CHANNELS 3 Xrotation Yrotation Zrotation
							JOINT newVegas:RightHand
							{
								OFFSET -27.849251 0.000000 0.000000
								CHANNELS 3 Xrotation Yrotation Zrotation
								JOINT newVegas:RightHandThumb1
								{
									OFFSET -4.487587 -3.305161 6.305391
									CHANNELS 3 Xrotation Yrotation Zrotation
									JOINT newVegas:RightHandThumb2
									{
										OFFSET -5.480453 -3.164139 3.164143
										CHANNELS 3 Xrotation Yrotation Zrotation
										JOINT newVegas:RightHandThumb3
										{
											OFFSET -5.159721 -2.978973 2.978967
											CHANNELS 3 Xrotation Yrotation Zrotation
											End Site
											{
												OFFSET -2.494507 5.926697 1.738678
											}
										}
									}
								}
								JOINT newVegas:RightHandIndex1
								{
									OFFSET -18.578728 -0.527832 5.208049
									CHANNELS 3 Xrotation Yrotation Zrotation
									JOINT newVegas:RightHandIndex2
									{
										OFFSET -3.192009 0.000000 0.000000
										CHANNELS 3 Xrotation Yrotation Zrotation
										JOINT newVegas:RightHandIndex3
										{
											OFFSET -3.835129 0.000000 0.000000
											CHANNELS 3 Xrotation Yrotation Zrotation
											End Site
											{
												OFFSET 0.034599 3.816971 0.371180
											}
										}
									}
								}
								JOINT newVegas:RightHandMiddle1
								{
									OFFSET -18.476105 0.000000 0.000000
									CHANNELS 3 Xrotation Yrotation Zrotation
									JOINT newVegas:RightHandMiddle2
									{
										OFFSET -3.324875 0.000000 0.000000
										CHANNELS 3 Xrotation Yrotation Zrotation
										JOINT newVegas:RightHandMiddle3
										{
											OFFSET -4.596550 0.000000 0.000000
											CHANNELS 3 Xrotation Yrotation Zrotation
											End Site
											{
												OFFSET -0.057701 4.578827 0.399218
											}
										}
									}
								}
								JOINT newVegas:RightHandRing1
								{
									OFFSET -17.732719 0.121887 -4.201567
									CHANNELS 3 Xrotation Yrotation Zrotation
									JOINT newVegas:RightHandRing2
									{
										OFFSET -2.733170 0.000000 0.000000
										CHANNELS 3 Xrotation Yrotation Zrotation
										JOINT newVegas:RightHandRing3
										{
											OFFSET -3.178268 0.000000 0.000000
											CHANNELS 3 Xrotation Yrotation Zrotation
											End Site
											{
												OFFSET -0.119102 3.170624 0.185394
											}
										}
									}
								}
								JOINT newVegas:RightHandPinky1
								{
									OFFSET -15.989624 -0.606689 -7.535461
									CHANNELS 3 Xrotation Yrotation Zrotation
									JOINT newVegas:RightHandPinky2
									{
										OFFSET -2.538986 0.000000 0.000000
										CHANNELS 3 Xrotation Yrotation Zrotation
										JOINT newVegas:RightHandPinky3
										{
											OFFSET -2.593102 0.000000 0.000000
											CHANNELS 3 Xrotation Yrotation Zrotation
											End Site
											{
												OFFSET 0.150902 2.584198 0.152708
											}
										}
									}
								}
							}
							JOINT newVegas:Right_CapeC
							{
								OFFSET -15.715958 -8.608795 -6.935905
								CHANNELS 3 Xrotation Yrotation Zrotation
								JOINT newVegas:Right_CapeC1
								{
									OFFSET 0.000000 -8.688499 0.000000
									CHANNELS 3 Xrotation Yrotation Zrotation
									End Site
									{
										OFFSET 0.000000 8.688499 0.000000
									}
								}
							}
							JOINT newVegas:Right_Sleeve
							{
								OFFSET -0.267448 -0.649994 0.577675
								CHANNELS 3 Xrotation Yrotation Zrotation
								End Site
								{
									OFFSET 0.000000 15.991302 0.000000
								}
							}
						}
						JOINT newVegas:Right_CapeA
						{
							OFFSET -5.115540 -8.608795 -10.395824
							CHANNELS 3 Xrotation Yrotation Zrotation
							JOINT newVegas:Right_CapeA1
							{
								OFFSET 0.000000 -8.688499 0.000000
								CHANNELS 3 Xrotation Yrotation Zrotation
								End Site
								{
									OFFSET 0.000000 8.688499 0.000000
								}
							}
						}
						JOINT newVegas:Right_CapeB
						{
							OFFSET -26.118187 -8.608795 -7.079266
							CHANNELS 3 Xrotation Yrotation Zrotation
							JOINT newVegas:Right_CapeB1
							{
								OFFSET 0.000000 -8.688499 0.000000
								CHANNELS 3 Xrotation Yrotation Zrotation
								End Site
								{
									OFFSET 0.000000 8.688499 0.000000
								}
							}
						}
					}
				}
				JOINT newVegas:Left_Collar
				{
					OFFSET 18.625099 8.655502 8.828100
					CHANNELS 3 Xrotation Yrotation Zrotation
					JOINT newVegas:Left_Collar1
					{
						OFFSET 14.783401 10.540405 -1.259500
						CHANNELS 3 Xrotation Yrotation Zrotation
						End Site
						{
							OFFSET 0.000000 18.199875 0.000000
						}
					}
				}
				JOINT newVegas:Collar_Back
				{
					OFFSET 0.000000 15.630707 -20.132601
					CHANNELS 3 Xrotation Yrotation Zrotation
					End Site
					{
						OFFSET 0.000000 22.523010 0.000000
					}
				}
				JOINT newVegas:Left_Peck
				{
					OFFSET 17.239599 -5.132599 25.482599
					CHANNELS 3 Xrotation Yrotation Zrotation
					End Site
					{
						OFFSET 0.000000 22.523010 0.000000
					}
				}
				JOINT newVegas:Right_Peck
				{
					OFFSET -17.239599 -5.132202 25.482599
					CHANNELS 3 Xrotation Yrotation Zrotation
					End Site
					{
						OFFSET 0.000000 22.523010 0.000000
					}
				}
				JOINT newVegas:Right_Collar
				{
					OFFSET -18.625099 8.655792 8.828100
					CHANNELS 3 Xrotation Yrotation Zrotation
					JOINT newVegas:Right_Collar1
					{
						OFFSET -14.783401 10.539993 -1.259500
						CHANNELS 3 Xrotation Yrotation Zrotation
						End Site
						{
							OFFSET 0.000000 18.199631 0.000000
						}
					}
				}
			}
		}
		JOINT newVegas:Belly
		{
			OFFSET 0.000000 -6.540398 9.014299
			CHANNELS 3 Xrotation Yrotation Zrotation
			End Site
			{
				OFFSET 0.000000 11.566666 0.000000
			}
		}
	}
	JOINT newVegas:ElvisFacialAnim_Joint
	{
		OFFSET 1.000000 -95.330101 -8.825800
		CHANNELS 3 Xrotation Yrotation Zrotation
		End Site
		{
			OFFSET 0.000000 35.315800 0.000000
		}
	}
}
MOTION
Frames: 4
Frame Time: 0.033333
-1.630213 92.491692 1.825796 -13.104024 3.458045 -4.125867 0.000001 0.000000 -0.000000 -20.771797 10.999582 17.076077 39.996758 0.501735 8.159919 -11.595920 -4.466101 -12.309925 0.000000 -0.000001 -0.000000 0.000000 -0.000000 0.000001 4.657710 -10.776111 7.240497 26.552147 -10.288718 -4.612744 -18.684548 -11.431514 3.250504 -0.000000 -0.000000 -0.000000 0.000004 -0.000002 -0.000000 3.179781 2.596414 0.855181 1.217034 1.810208 0.485008 1.193221 1.842692 0.489481 2.114861 -1.139877 0.550285 2.114875 -1.139874 0.550284 0.000000 -0.000000 0.000000 2.114933 -1.139878 0.550287 2.114720 -1.139879 0.550283 -0.000000 0.000000 0.000000 0.000000 -0.000000 0.000000 0.976573 -14.001750 -12.585548 2.437312 -13.358361 -67.027214 0.000001 -0.486977 0.000007 -30.635707 5.207562 -9.923170 -8.156485 2.036652 10.572399 13.040084 26.052652 13.152592 0.000001 -0.000000 -0.000003 0.546543 -0.157621 -8.389474 0.236378 1.648932 -16.314822 -0.000001 0.000001 -0.000002 0.178943 3.749007 -21.089514 0.280876 1.793900 -17.795938 -0.000001 -0.000000 -0.000001 -0.271370 3.332345 -29.819288 0.666056 2.714904 -27.563722 -0.000000 0.000001 0.000001 0.490042 5.114318 -29.249746 0.308545 1.877876 -18.659599 0.000000 -0.000003 -0.000006 0.000002 0.000001 -0.000000 0.000002 0.000001 -0.000000 0.000001 0.000001 -0.000000 0.000003 0.000001 -0.000000 0.000003 0.000000 0.000000 0.000003 0.000001 -0.000000 0.000003 0.000002 0.000000 1.072366 13.046685 15.676088 15.152973 27.416741 57.616757 -0.000008 6.912724 0.000009 -18.894036 -1.374697 3.568486 -3.860456 -0.506724 -6.063224 13.440480 -29.976177 -14.098666 -0.000000 -0.000003 -0.000001 0.439194 1.481006 1.657624 0.187524 -1.309556 16.297313 -0.000001 0.000000 -0.000001 0.196525 -3.563308 9.343938 0.185693 -1.303317 16.217384 -0.000001 0.000001 0.000000 -0.808872 -1.388444 24.386227 0.443539 -1.985329 25.184096 0.000002 0.000001 0.000002 0.990648 -5.357785 28.621638 0.310007 -1.672323 21.001981 -0.000005 0.000003 -0.000000 0.000001 0.000001 -0.000000 0.000003 -0.000000 0.000000 0.000001 0.000001 -0.000000 -0.000001 0.000001 0.000001 -0.000000 0.000001 -0.000001 -0.000001 0.000001 0.000001 -0.000001 0.000001 0.000001 -0.000000 0.000000 0.000000 -0.000000 0.000000 0.000000 -0.000000 0.000000 0.000000 -0.000000 0.000000 0.000000 -0.000000 0.000000 0.000000 -0.000000 0.000000 0.000000 -0.000000 0.000000 0.000000 0.000001 -0.000000 -0.000000 0.000001 0.000000 -0.000000 
-1.540484 92.734642 1.490837 -12.366572 3.157579 -4.113430 0.000000 0.000000 0.000000 -20.978895 11.097795 16.753672 38.568115 0.482909 7.860265 -10.521306 -4.315564 -11.914705 -0.000000 -0.000000 -0.000000 0.000001 -0.000003 -0.000000 3.942874 -10.779078 7.172663 25.459062 -10.298750 -4.845278 -17.678773 -11.088974 3.289080 0.000000 0.000002 0.000000 0.000002 -0.000000 -0.000000 3.417713 2.557810 0.975509 1.329623 1.764103 0.553528 1.304489 1.797771 0.561204 2.033663 -1.076534 0.651068 2.033668 -1.076534 0.651069 -0.000000 0.000000 0.000000 2.033663 -1.076529 0.651068 2.033740 -1.076537 0.651071 0.000000 -0.000000 0.000000 -0.000000 0.000000 -0.000000 0.993830 -14.390780 -12.464554 2.677851 -14.454746 -68.636831 0.000004 0.000001 0.000009 -31.365653 5.454472 -8.966347 -2.310883 3.545722 6.975702 11.693436 25.245808 17.658430 0.000001 -0.000003 -0.000005 0.949533 0.587860 -10.008052 0.242322 1.669092 -16.520080 0.000001 -0.000000 0.000002 0.415323 4.372499 -22.404168 0.287067 1.813069 -17.992747 0.000000 0.000001 0.000002 -0.155826 3.554029 -30.092714 0.639313 2.663106 -26.993751 0.000000 -0.000000 -0.000002 0.941648 5.661377 -30.367069 0.297815 1.845808 -18.329337 0.000000 0.000002 -0.000002 -0.000001 0.000000 -0.000000 -0.000001 0.000000 -0.000000 -0.000001 0.000000 -0.000000 0.000002 -0.000002 0.000001 0.000002 -0.000003 -0.000001 0.000002 -0.000002 0.000001 0.000002 -0.000001 0.000000 1.046207 12.889769 15.854375 14.593778 25.705306 58.653580 0.000006 6.619421 0.000024 -19.111588 -1.470110 2.794812 -3.113940 -0.432241 -6.763455 14.255717 -30.085218 -11.865184 -0.000000 -0.000001 0.000001 0.630793 2.740280 -2.039199 0.185897 -1.304020 16.226439 -0.000000 0.000001 -0.000000 0.093542 -2.956560 6.071158 0.186587 -1.306353 16.256400 -0.000001 0.000000 0.000001 -0.895002 -0.674600 21.023867 0.422065 -1.939060 24.557245 0.000002 -0.000001 0.000002 0.669158 -4.844815 23.187379 0.301993 -1.651321 20.725687 -0.000004 0.000003 0.000003 0.000002 0.000000 -0.000002 0.000002 0.000000 -0.000002 0.000002 0.000000 -0.000001 0.000000 0.000001 -0.000000 0.000000 0.000001 -0.000000 0.000000 0.000001 -0.000000 0.000000 0.000001 -0.000000 -0.000000 -0.000000 0.000000 -0.000000 -0.000000 0.000000 -0.000000 -0.000000 0.000000 -0.000000 -0.000000 0.000000 -0.000000 -0.000000 0.000000 -0.000000 -0.000000 0.000000 -0.000000 -0.000000 0.000000 -0.000001 0.000000 -0.000000 0.000000 0.000000 0.000000 
-1.457928 92.988434 1.235043 -11.634120 2.821764 -4.113312 -0.000000 0.000000 0.000000 -21.081124 11.250638 16.475111 37.087982 0.429726 7.558524 -9.516983 -4.132623 -11.518426 0.000000 0.000001 0.000000 -0.000000 0.000002 -0.000001 3.409519 -10.752661 7.129998 24.167668 -10.312324 -5.036144 -16.657242 -10.695252 3.304427 -0.000000 -0.000000 -0.000000 -0.000000 -0.000000 -0.000000 3.593140 2.514571 1.082172 1.409037 1.709875 0.613714 1.382998 1.744079 0.623759 1.989337 -1.011168 0.750247 1.989340 -1.011170 0.750249 -0.000000 0.000000 0.000000 1.989338 -1.011168 0.750248 1.989410 -1.011172 0.750250 0.000000 -0.000000 0.000000 -0.000000 0.000000 -0.000000 1.017121 -14.710363 -12.294872 2.943617 -15.476495 -69.972351 0.000000 0.000001 0.000005 -31.262906 5.517364 -7.906142 2.004943 4.264151 4.320989 10.816092 24.569406 20.876868 -0.000000 -0.000001 -0.000003 1.081358 0.742046 -10.165351 0.246678 1.683705 -16.668986 0.000001 -0.000001 0.000000 0.604929 4.829043 -22.572858 0.290178 1.822615 -18.090763 0.000000 0.000000 -0.000000 -0.079849 3.645281 -29.471781 0.604309 2.593309 -26.230344 -0.000000 0.000001 -0.000001 1.199366 5.967910 -30.792655 0.287660 1.814884 -18.011424 0.000001 0.000002 0.000003 0.000002 -0.000000 -0.000000 0.000002 -0.000000 -0.000000 0.000001 -0.000000 -0.000000 -0.000001 0.000001 -0.000000 -0.000001 0.000000 -0.000001 -0.000001 0.000001 -0.000000 -0.000001 -0.000000 -0.000000 1.027316 12.752763 15.990014 14.221434 24.235536 59.122582 -0.000006 6.350442 0.000010 -19.902331 -1.800015 5.107410 -3.043588 -0.205735 -7.255276 14.471962 -30.102525 -11.272693 0.000001 -0.000002 -0.000001 0.681741 3.041819 -2.623781 0.185311 -1.301975 16.200312 -0.000001 0.000001 0.000001 0.066947 -2.702009 5.467454 0.188465 -1.312755 16.338337 -0.000003 -0.000001 -0.000001 -0.930185 -0.383108 19.946429 0.428753 -1.953638 24.754238 -0.000002 0.000004 0.000002 0.578085 -4.683003 21.211141 0.294877 -1.632424 20.477628 -0.000002 0.000001 0.000001 0.000000 0.000000 -0.000001 -0.000002 0.000000 -0.000001 0.000000 0.000000 -0.000001 -0.000001 -0.000001 0.000000 -0.000001 0.000000 0.000000 -0.000001 -0.000001 0.000000 -0.000001 -0.000000 0.000000 0.000000 0.000001 -0.000000 0.000000 0.000001 -0.000000 0.000000 0.000001 -0.000000 0.000000 0.000001 -0.000000 0.000000 0.000001 -0.000000 0.000000 0.000001 -0.000000 0.000000 0.000001 -0.000000 0.000001 -0.000000 0.000000 -0.000000 0.000000 0.000000 
-1.391752 93.242691 1.067598 -10.884495 2.462301 -4.099454 0.000000 0.000000 -0.000000 -21.120012 11.480328 16.298891 35.585320 0.347427 7.172021 -8.601635 -3.978843 -11.133584 -0.000000 -0.000000 -0.000000 0.000000 0.000002 -0.000000 2.996418 -10.719366 7.106974 22.757408 -10.334604 -5.225213 -15.669876 -10.271975 3.314614 0.000000 0.000000 0.000000 -0.000001 -0.000001 -0.000000 3.730288 2.480023 1.168404 1.465907 1.668112 0.656095 1.439083 1.702871 0.668133 1.963122 -0.948211 0.834203 1.963153 -0.948210 0.834202 0.000000 0.000000 -0.000000 1.963065 -0.948246 0.834211 1.963115 -0.948164 0.834197 0.000000 -0.000000 0.000000 0.000000 0.000000 -0.000000 1.028770 -14.862266 -12.214399 3.628948 -16.306419 -70.538628 0.000001 -0.000002 0.000004 -29.822413 5.260430 -7.089517 2.410807 4.067848 3.933470 10.647419 24.403612 21.541944 0.000001 -0.000001 -0.000001 0.874025 0.392548 -9.445680 0.248297 1.689102 -16.724020 -0.000000 -0.000001 -0.000001 0.533561 4.660790 -21.884739 0.290302 1.822991 -18.094633 -0.000000 -0.000000 -0.000001 -0.104904 3.519937 -28.268826 0.581262 2.546044 -25.716227 -0.000001 0.000001 -0.000002 1.113889 5.848499 -30.203872 0.283026 1.800577 -17.864493 0.000000 -0.000005 -0.000001 -0.000001 0.000000 0.000000 -0.000001 0.000000 0.000000 -0.000001 0.000000 0.000000 0.000002 0.000000 -0.000000 0.000002 0.000000 -0.000000 0.000002 0.000000 -0.000000 0.000002 -0.000000 -0.000000 1.021213 12.795506 16.020456 14.620227 23.938227 58.910470 0.000012 6.240218 0.000001 -20.671477 -2.183184 8.232424 -2.952175 0.054756 -6.734971 14.187295 -30.073101 -12.049597 0.000001 -0.000004 0.000001 0.543088 2.612416 -0.904708 0.187256 -1.308650 16.285807 0.000001 -0.000000 -0.000001 0.081155 -2.837228 7.120144 0.191464 -1.322941 16.468655 -0.000000 0.000000 -0.000000 -0.892299 -0.662010 20.909431 0.429863 -1.956042 24.786869 0.000002 0.000002 -0.000000 0.650375 -4.807310 22.633647 0.286359 -1.609401 20.176152 -0.000003 0.000002 -0.000001 -0.000001 -0.000001 -0.000000 -0.000003 0.000000 0.000000 -0.000001 -0.000001 -0.000000 0.000001 0.000001 0.000000 0.000001 0.000001 -0.000000 0.000001 0.000001 0.000000 0.000001 0.000001 -0.000000 -0.000000 0.000000 -0.000000 -0.000000 0.000000 -0.000000 -0.000000 0.000000 -0.000000 -0.000000 0.000000 -0.000000 -0.000000 0.000000 -0.000000 -0.000000 0.000000 -0.000000 -0.000000 0.000000 -0.000000 0.000001 0.000000 -0.000000 0.000000 0.000000 -0.000000 
